<?xml version="1.0" standalone="no"?>
<!DOCTYPE svg PUBLIC "-//W3C//DTD SVG 20010904//EN"
 "http://www.w3.org/TR/2001/REC-SVG-20010904/DTD/svg10.dtd">
<svg version="1.0" xmlns="http://www.w3.org/2000/svg"
 width="165.000000pt" height="165.000000pt" viewBox="0 0 165.000000 165.000000"
 preserveAspectRatio="xMidYMid meet">
<metadata>
Created by potrace 1.11, written by Peter Selinger 2001-2013
</metadata>
<g transform="translate(0.000000,165.000000) scale(0.100000,-0.100000)"
fill="#000000" stroke="none">
<path d="M270 1099 l0 -550 272 545 c150 300 275 546 278 546 6 0 520 -1034
520 -1047 0 -4 7 -17 15 -27 13 -18 15 45 15 532 l0 552 -550 0 -550 0 0 -551z"/>
<path d="M692 664 c-96 -193 -118 -242 -100 -233 13 7 66 14 118 15 116 3 157
-9 265 -82 44 -29 100 -60 125 -69 54 -20 163 -30 225 -21 l45 7 0 59 0 59
-82 -1 c-106 -2 -171 19 -224 72 -27 27 -69 100 -139 239 -55 111 -102 201
-105 201 -3 0 -60 -111 -128 -246z"/>
<path d="M650 204 c-34 -7 -81 -24 -104 -38 -43 -25 -125 -106 -145 -144 l-12
-22 378 0 c344 1 375 2 350 16 -31 17 -78 49 -158 110 -30 22 -71 49 -91 58
-55 26 -145 34 -218 20z"/>
</g>
</svg>
